<svg xmlns="http://www.w3.org/2000/svg" width="696.914" height="667.238" viewBox="0 0 696.914 667.238">
  <path id="forme-formation-sur-mesure" d="M0,196.754V736.136A31.972,31.972,0,0,0,31.981,768.1H305.15a31.972,31.972,0,0,1,31.98,31.963h0a31.972,31.972,0,0,0,31.981,31.963H664.934a31.972,31.972,0,0,0,31.98-31.963V549.683a31.971,31.971,0,0,0-31.98-31.963H545.006a31.972,31.972,0,0,1-31.981-31.964v-289a31.972,31.972,0,0,0-31.981-31.964H31.981A31.972,31.972,0,0,0,0,196.754" transform="translate(0 -164.789)" fill="#7971f5"/>
</svg>
