<svg xmlns="http://www.w3.org/2000/svg" width="657" height="710" viewBox="0 0 657 710">
  <path id="forme-fille-call-center" d="M222.446,435.542V588.648a42.883,42.883,0,0,1-21.828,37.366l-51.493,29A42.883,42.883,0,0,0,127.3,692.385v263.53a42.883,42.883,0,0,0,21.828,37.366l51.493,29a42.883,42.883,0,0,1,21.828,37.366v.135a42.856,42.856,0,0,0,42.836,42.877H741.46a42.856,42.856,0,0,0,42.836-42.877V435.542a42.856,42.856,0,0,0-42.836-42.876H265.282a42.856,42.856,0,0,0-42.836,42.876" transform="translate(-127.297 -392.664)" fill="#7971f5"/>
</svg>
