<svg xmlns="http://www.w3.org/2000/svg" width="1769" height="748" viewBox="0 0 1769 748">
  <path id="header-shape" d="M29.548,109.577,63.214,58.253A127.066,127.066,0,0,1,130.462,7.017l2.734-.882A127.107,127.107,0,0,1,172.206,0h862.886a111.19,111.19,0,0,1,78.61,32.551l68.991,68.97a135.77,135.77,0,0,0,95.989,39.747h363.689A126.608,126.608,0,0,1,1769,267.856V504.274A120.239,120.239,0,0,1,1649.776,624.49l-65.465.563a107.321,107.321,0,0,0-74.951,31.414l-49.979,49.963A142,142,0,0,1,1358.989,748h-546.5a165.172,165.172,0,0,1-110.959-42.817l-43.752-39.676a134.569,134.569,0,0,0-90.4-34.883l-428.716.911A138.349,138.349,0,0,1,0,492.172L4.27,192.848a154.316,154.316,0,0,1,25.278-83.271" transform="translate(0 -0.001)" fill="#7971f5"/>
</svg>
